<?xml version="1.0" encoding="UTF-8"?>
<svg version="1.1" xmlns="http://www.w3.org/2000/svg" width="721" height="566">
<path d="M0 0 C34.65 0 69.3 0 105 0 C105.33 51.48 105.66 102.96 106 156 C107.98 153.36 109.96 150.72 112 148 C130.69530743 124.59545793 159.65898229 110.83410823 189 107 C190.26650391 106.83177734 190.26650391 106.83177734 191.55859375 106.66015625 C227.27721243 102.69142084 265.49388905 110.74531494 294.328125 132.8515625 C295.20984375 133.56054688 296.0915625 134.26953125 297 135 C297.50982422 135.40444336 298.01964844 135.80888672 298.54492188 136.22558594 C323.61013745 156.22058684 340.14088419 182.66674394 350 213 C350.23557617 213.70882324 350.47115234 214.41764648 350.71386719 215.14794922 C357.71559741 236.60760311 359.3750686 258.38988096 359.4375 280.8125 C359.4436734 281.74865143 359.4498468 282.68480286 359.45620728 283.64932251 C359.64271627 327.63797412 347.57927297 373.40823435 318 407 C317.26910156 407.85207031 316.53820312 408.70414062 315.78515625 409.58203125 C292.8879107 435.77905559 260.71245299 452.56431699 226 456 C220.54409012 456.23483113 215.08543261 456.24566597 209.625 456.25 C208.4830014 456.25101212 208.4830014 456.25101212 207.31793213 456.25204468 C195.95379655 456.23603211 185.05563564 455.80921889 174 453 C173.33484375 452.83371094 172.6696875 452.66742188 171.984375 452.49609375 C146.57613309 445.95007723 119.71962045 429.86603408 106 407 C105.67 421.85 105.34 436.7 105 452 C70.35 452 35.7 452 0 452 C0 302.84 0 153.68 0 0 Z M122.03125 224.4375 C105.29761518 245.54762393 102.49566701 272.91994353 105.31640625 298.91601562 C108.532765 319.44762608 118.45295573 338.19182325 135 350.98046875 C146.37381693 358.63706166 159.20773438 364.1379834 173 365 C173.78375 365.05285156 174.5675 365.10570312 175.375 365.16015625 C196.94971044 365.8985764 215.07144607 357.34785816 230.6875 342.8125 C248.12856114 324.61175562 253.2598645 300.51079041 253 276 C252.1292931 254.81570106 245.52451916 233.89832006 230 219 C228.89591797 217.84951172 228.89591797 217.84951172 227.76953125 216.67578125 C214.73056364 203.81154017 196.57123475 197.7346205 178.5 197.5 C155.96854515 197.77028661 136.7768447 207.40737654 122.03125 224.4375 Z " fill="#000000" transform="translate(92,58)"/>
<path d="M0 0 C11.42579547 9.99757104 20.25464236 21.51301758 21.49707031 37.18798828 C22.41610244 54.6661281 19.75889349 68.49042784 8.31640625 82.26171875 C-2.27848652 93.63421833 -17.0133707 101.22820201 -32.6875 101.859375 C-33.84765625 101.9109375 -35.0078125 101.9625 -36.203125 102.015625 C-55.6435448 102.59071446 -71.86080389 97.91687165 -86.7265625 85.1015625 C-96.30748326 76.02712213 -102.42354478 63.92030662 -102.890625 50.63671875 C-103.18593788 32.54413206 -99.83768986 18.63100655 -87.03515625 5.14453125 C-64.69456931 -16.60129797 -24.80912995 -19.76076048 0 0 Z " fill="#FF6720" transform="translate(617.6875,412.140625)"/>
</svg>
