<?xml version="1.0" encoding="UTF-8"?>
<svg version="1.1" xmlns="http://www.w3.org/2000/svg" width="2480" height="1634">
<path d="M0 0 C34.65 0 69.3 0 105 0 C105.33 51.48 105.66 102.96 106 156 C107.98 153.36 109.96 150.72 112 148 C130.69530743 124.59545793 159.65898229 110.83410823 189 107 C190.26650391 106.83177734 190.26650391 106.83177734 191.55859375 106.66015625 C227.27721243 102.69142084 265.49388905 110.74531494 294.328125 132.8515625 C295.20984375 133.56054688 296.0915625 134.26953125 297 135 C297.50982422 135.40444336 298.01964844 135.80888672 298.54492188 136.22558594 C323.61013745 156.22058684 340.14088419 182.66674394 350 213 C350.23557617 213.70882324 350.47115234 214.41764648 350.71386719 215.14794922 C357.71559741 236.60760311 359.3750686 258.38988096 359.4375 280.8125 C359.4436734 281.74865143 359.4498468 282.68480286 359.45620728 283.64932251 C359.64271627 327.63797412 347.57927297 373.40823435 318 407 C317.26910156 407.85207031 316.53820312 408.70414063 315.78515625 409.58203125 C292.8879107 435.77905559 260.71245299 452.56431699 226 456 C220.54409012 456.23483113 215.08543261 456.24566597 209.625 456.25 C208.4830014 456.25101212 208.4830014 456.25101212 207.31793213 456.25204468 C195.95379655 456.23603211 185.05563564 455.80921889 174 453 C173.33484375 452.83371094 172.6696875 452.66742187 171.984375 452.49609375 C146.57613309 445.95007723 119.71962045 429.86603408 106 407 C105.67 421.85 105.34 436.7 105 452 C70.35 452 35.7 452 0 452 C0 302.84 0 153.68 0 0 Z M122.03125 224.4375 C105.29761518 245.54762393 102.49566701 272.91994353 105.31640625 298.91601562 C108.532765 319.44762608 118.45295573 338.19182325 135 350.98046875 C146.37381693 358.63706166 159.20773438 364.1379834 173 365 C173.78375 365.05285156 174.5675 365.10570312 175.375 365.16015625 C196.94971044 365.8985764 215.07144607 357.34785816 230.6875 342.8125 C248.12856114 324.61175562 253.2598645 300.51079041 253 276 C252.1292931 254.81570106 245.52451916 233.89832006 230 219 C228.89591797 217.84951172 228.89591797 217.84951172 227.76953125 216.67578125 C214.73056364 203.81154017 196.57123475 197.7346205 178.5 197.5 C155.96854515 197.77028661 136.7768447 207.40737654 122.03125 224.4375 Z " fill="#000000" transform="translate(92,586)"/>
<path d="M0 0 C0.59264648 0.28746094 1.18529297 0.57492187 1.79589844 0.87109375 C10.33203943 5.06734052 17.82905768 9.68474996 25 16 C25.81855469 16.67546875 26.63710937 17.3509375 27.48046875 18.046875 C34.70817772 24.18762618 38.93275395 30.11258014 45 38 C45.495 15.725 45.495 15.725 46 -7 C80.65 -7 115.3 -7 151 -7 C151 105.53 151 218.06 151 334 C116.35 334 81.7 334 46 334 C45.67 319.15 45.34 304.3 45 289 C40.545 294.445 40.545 294.445 36 300 C14.93344944 322.7518746 -14.61523002 336.82629079 -45.75952148 338.16113281 C-49.98571994 338.20709008 -54.21104722 338.24665333 -58.4375 338.25 C-59.58191559 338.25101212 -59.58191559 338.25101212 -60.74945068 338.25204468 C-71.78454292 338.23651538 -82.28787867 337.90241372 -93 335 C-93.64952637 334.82839355 -94.29905273 334.65678711 -94.96826172 334.47998047 C-115.18319509 329.0331925 -134.15230449 319.77018248 -150 306 C-151.22783203 304.95392578 -151.22783203 304.95392578 -152.48046875 303.88671875 C-174.84537408 284.36510371 -189.59795735 258.92847643 -199 231 C-199.25120605 230.2584668 -199.50241211 229.51693359 -199.76123047 228.75292969 C-201.47092443 223.56333817 -202.82585732 218.3351213 -204 213 C-204.19609863 212.11924805 -204.39219727 211.23849609 -204.59423828 210.33105469 C-207.92310277 194.50601942 -208.39371637 178.79531934 -208.4375 162.6875 C-208.4436734 161.72743042 -208.4498468 160.76736084 -208.45620728 159.77819824 C-208.53142591 141.58034138 -206.92128705 123.53153886 -202.3125 105.875 C-202.05831299 104.8862085 -201.80412598 103.89741699 -201.54223633 102.87866211 C-195.71786517 81.12399952 -185.87356712 60.74441217 -172 43 C-171.56961426 42.44860352 -171.13922852 41.89720703 -170.69580078 41.32910156 C-159.99859524 27.80389915 -147.79786758 16.86555389 -133 8 C-132.34547852 7.60683594 -131.69095703 7.21367188 -131.01660156 6.80859375 C-114.60402965 -2.86181809 -96.84314819 -8.51802579 -78 -11 C-77.05511719 -11.13019531 -76.11023437 -11.26039063 -75.13671875 -11.39453125 C-49.9355907 -14.26264142 -22.93417141 -11.13426791 0 0 Z M-75 97 C-75.87011719 97.76699219 -76.74023438 98.53398438 -77.63671875 99.32421875 C-93.79754601 114.42676538 -100.95745208 135.13907325 -102 157 C-102.061875 158.25103516 -102.061875 158.25103516 -102.125 159.52734375 C-102.73449849 184.85962488 -95.68310125 208.40732925 -78 227 C-68.10665873 236.65818545 -54.53290206 243.33929383 -41 246 C-39.2984375 246.3403125 -39.2984375 246.3403125 -37.5625 246.6875 C-16.1978141 248.56159525 1.85034365 243.38874779 18.5625 229.9375 C34.78792398 216.08652831 43.28998462 196.70089167 45.8125 175.75 C45.90554894 174.16816796 45.96523732 172.58418504 46 171 C46.05800781 169.33324219 46.05800781 169.33324219 46.1171875 167.6328125 C46.57070135 143.3950165 41.52409188 120.17083061 24.26171875 102.234375 C23.14216797 101.12835937 23.14216797 101.12835937 22 100 C21.32582031 99.30390625 20.65164063 98.6078125 19.95703125 97.890625 C6.92350957 85.27280664 -10.32222177 79.7143672 -28.1875 79.5625 C-45.29590457 79.85460807 -62.12616871 85.38471026 -75 97 Z " fill="#000000" transform="translate(1871,704)"/>
<path d="M0 0 C38.61 0 77.22 0 117 0 C120.08583419 7.40600207 123.09247379 14.74621691 125.828125 22.2734375 C126.17414261 23.21842606 126.52016022 24.16341461 126.87666321 25.13703918 C127.61783056 27.16201373 128.3578187 29.18742023 129.09671021 31.21322632 C130.68453839 35.56629819 132.27835882 39.91716867 133.87184143 44.26817322 C134.69718714 46.52186408 135.52224823 48.7756592 136.34703064 51.02955627 C140.39564141 62.09080276 144.4755644 73.14036754 148.5625 84.1875 C149.26597054 86.08967359 149.96942101 87.99185459 150.67285156 89.89404297 C152.0787395 93.69554901 153.48486037 97.4969688 154.89111328 101.29833984 C158.07624006 109.90894009 161.25814925 118.52072946 164.44033813 127.13241577 C165.4916428 129.97738433 166.54304392 132.82231723 167.59448242 135.66723633 C170.91230191 144.64440845 174.22980327 153.62169789 177.54644775 162.5993042 C179.11216633 166.83739774 180.67802595 171.07543916 182.24389648 175.31347656 C182.98989803 177.33265623 183.73583056 179.35186139 184.48168945 181.37109375 C185.51626369 184.17193973 186.55107635 186.97269752 187.5859375 189.7734375 C188.03947098 191.00155655 188.03947098 191.00155655 188.50216675 192.25448608 C188.78810699 193.02821564 189.07404724 193.80194519 189.36865234 194.59912109 C189.63925476 195.33426941 189.90985718 196.06941772 190.18865967 196.82684326 C190.74003196 198.30368148 191.30369944 199.77597538 191.87823486 201.24395752 C194 206.69405467 194 206.69405467 194 210 C194.66 210 195.32 210 196 210 C196.10630737 209.4572644 196.21261475 208.91452881 196.32214355 208.35534668 C197.51284071 202.61522102 199.20825863 197.25798357 201.28125 191.78125 C201.60644623 190.90721527 201.93164246 190.03318054 202.26669312 189.13265991 C202.97026892 187.24370259 203.676523 185.35574108 204.38519287 183.46868896 C205.52660007 180.42916504 206.66094905 177.38708846 207.79345703 174.34423828 C208.98705819 171.13749731 210.18109089 167.93092428 211.37722778 164.72512817 C215.58175509 153.45589894 219.73170245 142.16685475 223.875 130.875 C224.62496991 128.83267124 225.37497011 126.79035361 226.125 124.74804688 C231.99439978 108.76123567 237.83875224 92.76530234 243.68008423 76.76821899 C249.3945378 61.11946468 255.1192401 45.47451021 260.86083984 29.83569336 C261.65551985 27.67107027 262.44995747 25.50635817 263.24414062 23.34155273 C264.34038587 20.35372419 265.43760937 17.36625686 266.53515625 14.37890625 C266.85819229 13.49811905 267.18122833 12.61733185 267.51405334 11.70985413 C267.81371506 10.89496017 268.11337677 10.08006622 268.42211914 9.24047852 C268.68013809 8.53794449 268.93815704 7.83541046 269.20399475 7.11158752 C270.1024784 4.72815241 271.05400767 2.36498083 272 0 C309.62 0 347.24 0 386 0 C382.62513017 10.12460949 382.62513017 10.12460949 380.86547852 14.23291016 C380.46899109 15.16350754 380.07250366 16.09410492 379.66400146 17.05290222 C379.23992004 18.03833511 378.81583862 19.02376801 378.37890625 20.0390625 C377.7013327 21.62555351 377.7013327 21.62555351 377.0100708 23.24409485 C375.53079372 26.70579517 374.04662121 30.16537407 372.5625 33.625 C371.52199914 36.05786142 370.4818839 38.49088781 369.44213867 40.92407227 C367.58318969 45.27393513 365.72319297 49.62334656 363.86172199 53.97213078 C359.56960731 63.99990507 355.29777662 74.03625975 351.02990723 84.07437134 C348.98957523 88.87287498 346.94781367 93.67077029 344.90625 98.46875 C344.09244506 100.3815092 343.27864298 102.29426962 342.46484375 104.20703125 C339.94571882 110.12777711 337.42602264 116.04827978 334.90625 121.96875 C326.75531533 141.12056856 318.60704187 160.27350818 310.46743774 179.43014526 C304.22333912 194.12544655 297.97204683 208.81768029 291.71923828 223.50927734 C285.97567552 237.00456486 280.23552481 250.50129443 274.5 264 C267.91184021 279.50540399 261.3167195 295.00783748 254.71923828 310.50927734 C248.97567552 324.00456486 243.23552481 337.50129443 237.5 351 C230.48803435 367.50284202 223.46830324 384.00237157 216.44580078 400.50073242 C212.48901284 409.79718158 208.53390446 419.09433213 204.5859375 428.39453125 C197.08376162 446.06606593 189.55973445 463.72799878 182 481.375 C181.60206238 482.30438385 181.20412476 483.2337677 180.79412842 484.1913147 C179.6759528 486.80232322 178.55689959 489.41295353 177.4375 492.0234375 C177.10295807 492.80469498 176.76841614 493.58595245 176.42373657 494.3908844 C174.11538165 499.76923671 174.11538165 499.76923671 173 502 C135.71 502 98.42 502 60 502 C61.91612886 496.25161342 63.79526897 490.91754997 66.3359375 485.484375 C66.65119385 484.799767 66.9664502 484.115159 67.29125977 483.4098053 C67.9651722 481.94745606 68.64114275 480.48605377 69.31903076 479.02554321 C71.13904747 475.10352871 72.94308626 471.17415731 74.75 467.24609375 C75.11451263 466.45486618 75.47902527 465.66363861 75.85458374 464.84843445 C79.0735834 457.85658064 82.23575367 450.84056576 85.375 443.8125 C86.43225192 441.44789889 87.48954479 439.0833161 88.546875 436.71875 C88.81812195 436.11192886 89.0893689 435.50510773 89.36883545 434.87989807 C92.72984149 427.36308305 96.10720553 419.853625 99.48571777 412.34466553 C100.24440494 410.65840953 101.00295018 408.97208967 101.76135254 407.28570557 C106.18908491 397.44080475 110.63047397 387.60227897 115.09375 377.7734375 C115.94321756 375.90129531 116.79266434 374.02914369 117.64208984 372.15698242 C119.61970421 367.79854657 121.60230857 363.44240879 123.58833313 359.08779907 C124.32223856 357.46278128 125.04664541 355.83343785 125.76115417 354.19979858 C127.55029285 350.11277806 129.42941596 346.16266239 131.5925293 342.2590332 C134.92052488 335.97952552 137.88243063 330.32661903 136.21191406 323.12231445 C134.50311937 317.78089969 132.04693017 312.82679044 129.5625 307.8125 C128.69608088 305.9348751 127.83682866 304.05392828 126.984375 302.16992188 C125.22713266 298.30482439 123.43801804 294.4572483 121.62158203 290.61962891 C118.03183157 282.99114339 114.78002097 275.22613345 111.52761841 267.44946289 C110.14331313 264.1497902 108.73981092 260.85843331 107.33622742 257.56692505 C102.54814483 246.33678122 97.83165592 235.07695774 93.125 223.8125 C86.96531478 209.07150705 80.78046754 194.34151025 74.5625 179.625 C73.97279922 178.22917191 73.97279922 178.22917191 73.3711853 176.80514526 C70.58175406 170.20302264 67.79103701 163.60144391 65 157 C61.81160436 149.45871164 58.62379007 141.91717827 55.4375 134.375 C55.04410431 133.44383362 54.65070862 132.51266724 54.24539185 131.55328369 C48.47001947 117.88006109 42.72507398 104.19435185 37 90.5 C30.67204599 75.36389719 24.31772972 60.23914562 17.9375 45.125 C17.55166748 44.21049072 17.16583496 43.29598145 16.76831055 42.35375977 C15.64701317 39.69648474 14.52477601 37.03960832 13.40234375 34.3828125 C13.04465912 33.53483093 12.68697449 32.68684937 12.31845093 31.81317139 C10.38460411 27.23765031 8.42734872 22.67350278 6.44189453 18.12011719 C6.02371964 17.15733856 5.60554474 16.19455994 5.17469788 15.2026062 C4.36949404 13.35138953 3.55982418 11.5021072 2.74510193 9.65505981 C2.38521683 8.82642426 2.02533173 7.9977887 1.65454102 7.14404297 C1.33437515 6.41442352 1.01420929 5.68480408 0.68434143 4.93307495 C0 3 0 3 0 0 Z " fill="#000000" transform="translate(467,697)"/>
<path d="M0 0 C0.98709961 0.55445801 0.98709961 0.55445801 1.99414062 1.12011719 C36.88048835 21.02387403 60.87373661 54.67522388 71.68652344 93.06738281 C75 105.26718187 75 105.26718187 75 108 C38.04 108 1.08 108 -37 108 C-39.64 102.72 -42.28 97.44 -45 92 C-55.05355654 79.12654346 -66.61032581 72.12281661 -83 70 C-99.70591908 68.74484629 -114.46283667 72.30638583 -127.8125 82.75 C-146.88692745 100.59686529 -150.86535733 126.70734389 -152.18359375 151.4453125 C-152.70896399 175.61234336 -148.63925893 202.34120041 -132 221 C-131.48050781 221.59941406 -130.96101563 222.19882812 -130.42578125 222.81640625 C-120.21753985 233.83369242 -106.28667414 238.36367651 -91.546875 239.03515625 C-75.32389548 238.87435579 -61.32313321 234.43782905 -49.77734375 222.75 C-43.96071586 215.93591569 -41.16781294 209.33562589 -37 201 C-0.04 201 36.92 201 75 201 C70.31908952 220.89386955 70.31908952 220.89386955 67.3125 228.5 C66.9707373 229.37599854 66.62897461 230.25199707 66.27685547 231.15454102 C59.30834246 248.56950862 49.86864182 264.12508057 37.0078125 277.81640625 C34.93597301 280.01608181 34.93597301 280.01608181 32.95703125 282.578125 C30.02095865 286.21158809 26.59727701 289.03685836 23 292 C21.6078125 293.14855469 21.6078125 293.14855469 20.1875 294.3203125 C-7.49928276 316.40052175 -42.40550191 328.99814425 -77.890625 329.203125 C-78.70912933 329.21018463 -79.52763367 329.21724426 -80.37094116 329.22451782 C-114.90210458 329.45476102 -114.90210458 329.45476102 -130 326 C-131.32257813 325.70198486 -131.32257813 325.70198486 -132.671875 325.39794922 C-157.87064326 319.52498211 -182.23910527 308.94057213 -202 292 C-202.53963379 291.53867676 -203.07926758 291.07735352 -203.63525391 290.60205078 C-237.03714187 261.68508357 -255.56973485 219.71741697 -259 176 C-259.31017691 169.71872481 -259.33031527 163.4353907 -259.31567383 157.14770508 C-259.31252306 154.33309787 -259.33604324 151.51955585 -259.36132812 148.70507812 C-259.42098373 131.89630883 -257.6693851 115.3669025 -253.1875 99.125 C-252.92888184 98.16650146 -252.67026367 97.20800293 -252.40380859 96.22045898 C-250.17780786 88.20159809 -247.46665883 80.57808272 -244 73 C-243.70899414 72.36046387 -243.41798828 71.72092773 -243.11816406 71.06201172 C-235.92381309 55.443799 -226.57127096 41.69786046 -215 29 C-214.14921875 28.06542969 -213.2984375 27.13085938 -212.421875 26.16796875 C-160.65390147 -28.00241074 -63.89894186 -36.16615237 0 0 Z " fill="#000000" transform="translate(1554,713)"/>
<path d="M0 0 C34.65 0 69.3 0 105 0 C105 27.39 105 54.78 105 83 C127.44 83 149.88 83 173 83 C173 112.04 173 141.08 173 171 C150.56 171 128.12 171 105 171 C105.06148006 196.34971454 105.06148006 196.34971454 105.16015625 221.69921875 C105.20866778 232.04019966 105.25312263 242.38108264 105.27099609 252.72216797 C105.28403349 260.25433917 105.31105122 267.78631075 105.35461307 275.31836951 C105.37718115 279.30380059 105.39291349 283.28898589 105.39188385 287.27448654 C105.39113446 291.03225707 105.40919572 294.78948524 105.44116783 298.54711533 C105.45363631 300.57049548 105.44662457 302.59396694 105.43885803 304.61737061 C105.53999613 313.52521004 106.52968357 321.11655066 112.625 327.9375 C120.35333411 332.66037085 128.36215435 333.4540803 137.2578125 333.51171875 C138.62860962 333.53667419 138.62860962 333.53667419 140.02709961 333.56213379 C143.39283994 333.61932481 146.75896066 333.65203297 150.125 333.6875 C157.67375 333.790625 165.2225 333.89375 173 334 C173 363.7 173 393.4 173 424 C164.5025 424.020625 156.005 424.04125 147.25 424.0625 C144.61290039 424.071604 141.97580078 424.08070801 139.25878906 424.09008789 C128.77742088 424.11153902 118.31069022 424.0859071 107.83984375 423.57421875 C106.69391754 423.51887718 106.69391754 423.51887718 105.52484131 423.4624176 C74.54249132 421.71662093 45.43572286 411.54391581 23.5390625 388.953125 C0.14488354 361.74389532 -0.48101976 325.72707578 -0.30418181 291.87504101 C-0.28518182 287.61236739 -0.2836465 283.34968453 -0.28010559 279.0869751 C-0.27085257 271.04815662 -0.24633212 263.00946336 -0.21605712 254.97069955 C-0.1823006 245.8047689 -0.16597418 236.63883166 -0.15097082 227.47285414 C-0.11977492 208.64848443 -0.06484941 189.82428593 0 171 C-13.86 171 -27.72 171 -42 171 C-42 141.96 -42 112.92 -42 83 C-28.14 83 -14.28 83 0 83 C0 55.61 0 28.22 0 0 Z " fill="#000000" transform="translate(906,614)"/>
<path d="M0 0 C34.65 0 69.3 0 105 0 C105 148.83 105 297.66 105 451 C70.35 451 35.7 451 0 451 C0 302.17 0 153.34 0 0 Z " fill="#000000" transform="translate(2096,586)"/>
<path d="M0 0 C34.65 0 69.3 0 105 0 C105 112.2 105 224.4 105 340 C70.35 340 35.7 340 0 340 C0 227.8 0 115.6 0 0 Z " fill="#000000" transform="translate(1136,698)"/>
<path d="M0 0 C11.42579547 9.99757104 20.25464236 21.51301758 21.49707031 37.18798828 C22.41610244 54.6661281 19.75889349 68.49042784 8.31640625 82.26171875 C-2.27848652 93.63421833 -17.0133707 101.22820201 -32.6875 101.859375 C-33.84765625 101.9109375 -35.0078125 101.9625 -36.203125 102.015625 C-55.6435448 102.59071446 -71.86080389 97.91687165 -86.7265625 85.1015625 C-96.30748326 76.02712213 -102.42354478 63.92030662 -102.890625 50.63671875 C-103.18593788 32.54413206 -99.83768986 18.63100655 -87.03515625 5.14453125 C-64.69456931 -16.60129797 -24.80912995 -19.76076048 0 0 Z " fill="#FF6720" transform="translate(2365.6875,940.140625)"/>
<path d="M0 0 C34.32 0 68.64 0 104 0 C104 25.08 104 50.16 104 76 C69.68 76 35.36 76 0 76 C0 50.92 0 25.84 0 0 Z " fill="#000000" transform="translate(1136,586)"/>
</svg>
